<?xml version="1.0" encoding="utf-8"?>
<!-- Generator: Adobe Illustrator 16.0.0, SVG Export Plug-In . SVG Version: 6.00 Build 0)  -->
<!DOCTYPE svg PUBLIC "-//W3C//DTD SVG 1.1//EN" "http://www.w3.org/Graphics/SVG/1.1/DTD/svg11.dtd">
<svg version="1.1" id="Capa_1" xmlns="http://www.w3.org/2000/svg" xmlns:xlink="http://www.w3.org/1999/xlink" x="0px" y="0px"
	 width="160px" height="160px" viewBox="0 0 160 160" enable-background="new 0 0 160 160" xml:space="preserve">
<g>
	<path fill="#FFA400" d="M117.478,11.721L42.54,11.712h-0.001c-1.21,0-2.327,0.646-2.933,1.693L2.129,78.297
		c-0.604,1.049-0.604,2.34,0,3.387l37.463,64.901c0.604,1.049,1.723,1.693,2.933,1.693l74.936,0.01c1.209,0,2.33-0.646,2.934-1.693
		l37.477-64.894c0.604-1.048,0.604-2.339,0-3.387l-37.461-64.899C119.805,12.367,118.687,11.721,117.478,11.721"/>
	<path fill="#FFFFFF" d="M95.347,63.695c-4.629-4.629-12.162-4.629-16.792,0l-13.9,13.9c-4.63,4.629-4.63,12.163,0,16.792
		c2.314,2.314,5.354,3.471,8.396,3.471c3.04,0,6.081-1.156,8.396-3.471l13.901-13.9C99.976,75.857,99.976,68.324,95.347,63.695
		 M77.721,90.663c-2.576,2.574-6.767,2.576-9.343,0c-2.575-2.576-2.575-6.767,0-9.343l5.089-5.088l9.343,9.343L77.721,90.663z
		 M91.622,76.762l-5.088,5.088l-9.344-9.342l5.089-5.089c1.288-1.288,2.979-1.931,4.672-1.931c1.69,0,3.383,0.644,4.671,1.931
		C94.198,69.995,94.198,74.187,91.622,76.762"/>
	<path fill="#FFFFFF" d="M80,120.374c-0.364,0-0.731-0.053-1.086-0.154c-32.147-9.377-36.677-34.297-36.719-34.547
		c-0.264-1.565,0.434-3.106,1.777-3.944c2.727-1.795,4.393-4.811,4.459-8.075c-0.001-7.717-1.96-10.341-2.278-10.716
		c-1.322-1.021-1.847-2.796-1.261-4.402l5.031-13.834c0.381-1.041,1.187-1.872,2.211-2.283c1.014-0.404,2.146-0.365,3.122,0.1
		c2.478,1.111,5.103,1.801,7.804,2.05l3.725,0.015c6.87-0.516,10.362-3.726,10.508-3.863c1.488-1.465,3.947-1.459,5.453,0.038
		c0.136,0.125,4.244,3.898,12.351,3.898c3.328-0.042,6.584-0.762,9.646-2.138c0.979-0.466,2.109-0.504,3.117-0.102
		c1.031,0.413,1.837,1.244,2.215,2.282l5.033,13.841c0.585,1.597,0.066,3.365-1.262,4.398c-0.297,0.343-2.277,2.928-2.277,10.771
		c0.066,3.211,1.736,6.229,4.465,8.025c1.334,0.836,2.029,2.373,1.773,3.931c-0.045,0.258-4.573,25.178-36.717,34.553
		C80.733,120.321,80.367,120.374,80,120.374 M47.585,85.628c0.471,1.783,1.907,6.244,5.478,11.271
		c6.054,8.521,15.113,14.627,26.938,18.148c11.823-3.521,20.886-9.625,26.938-18.148c3.564-5.02,5.002-9.475,5.477-11.273
		c-3.748-2.79-6.015-7.159-6.111-11.864c-0.002-8.919,2.315-12.813,3.551-14.257l-4.233-11.642c-3.348,1.32-6.87,2.013-10.491,2.059
		c-8.046,0-13.136-3.112-15.127-4.618c-1.806,1.375-6.139,4.057-12.94,4.538c-0.065,0.005-0.129,0.01-0.196,0.007l-3.939-0.015
		c-0.073-0.001-0.146-0.004-0.22-0.01c-2.865-0.252-5.66-0.912-8.328-1.962l-4.233,11.64c1.294,1.484,3.554,5.344,3.554,14.207
		C53.6,78.465,51.333,82.838,47.585,85.628 M46.744,86.208c-0.001,0-0.002,0.002-0.003,0.002
		C46.742,86.21,46.743,86.208,46.744,86.208 M46.206,62.979c0.1,0.083,0.164,0.114,0.169,0.118
		C46.318,63.058,46.262,63.019,46.206,62.979 M110.159,60.339c0,0.002,0,0.003,0.001,0.005L110.159,60.339z M49.844,60.335
		l-0.002,0.004C49.843,60.338,49.843,60.337,49.844,60.335 M49.311,58.724c0.017,0.012,0.036,0.024,0.061,0.042
		C49.351,58.751,49.331,58.737,49.311,58.724 M107.032,47.262c-0.001,0.001-0.002,0.001-0.003,0.002
		C107.03,47.263,107.031,47.263,107.032,47.262 M52.968,47.262c0.001,0,0.002,0,0.003,0.001
		C52.97,47.262,52.969,47.262,52.968,47.262 M79.055,44.514c0.014,0.014,0.026,0.026,0.04,0.038
		C79.076,44.534,79.063,44.522,79.055,44.514"/>
</g>
</svg>
