<?xml version="1.0" encoding="utf-8"?>
<!-- Generator: Adobe Illustrator 16.0.0, SVG Export Plug-In . SVG Version: 6.00 Build 0)  -->
<!DOCTYPE svg PUBLIC "-//W3C//DTD SVG 1.1//EN" "http://www.w3.org/Graphics/SVG/1.1/DTD/svg11.dtd">
<svg version="1.1" id="Capa_1" xmlns="http://www.w3.org/2000/svg" xmlns:xlink="http://www.w3.org/1999/xlink" x="0px" y="0px"
	 width="135.519px" height="135.519px" viewBox="0 0 135.519 135.519" enable-background="new 0 0 135.519 135.519"
	 xml:space="preserve">
<g>
	
		<circle fill="none" stroke="#FFA400" stroke-width="5.202" stroke-linecap="round" stroke-linejoin="round" stroke-miterlimit="10" cx="67.759" cy="66.953" r="45.001"/>
	
		<path fill="none" stroke="#FFA400" stroke-width="5.202" stroke-linecap="round" stroke-linejoin="round" stroke-miterlimit="10" d="
		M80.178,45.699c-3.646-2.134-7.891-3.357-12.418-3.357c-13.594,0-24.613,11.02-24.613,24.612c0,13.594,11.019,24.613,24.613,24.613
		c13.592,0,24.611-11.02,24.611-24.613c0-2.108-0.264-4.155-0.764-6.108"/>
	
		<line fill="none" stroke="#FFA400" stroke-width="5.202" stroke-linecap="round" stroke-linejoin="round" stroke-miterlimit="10" x1="67.76" y1="114.926" x2="67.76" y2="131.648"/>
	
		<line fill="none" stroke="#FFA400" stroke-width="5.202" stroke-linecap="round" stroke-linejoin="round" stroke-miterlimit="10" x1="67.76" y1="3.87" x2="67.76" y2="21.953"/>
	
		<line fill="none" stroke="#FFA400" stroke-width="5.202" stroke-linecap="round" stroke-linejoin="round" stroke-miterlimit="10" x1="115.732" y1="66.953" x2="132.455" y2="66.953"/>
	
		<line fill="none" stroke="#FFA400" stroke-width="5.202" stroke-linecap="round" stroke-linejoin="round" stroke-miterlimit="10" x1="3.064" y1="66.953" x2="22.758" y2="66.953"/>
	
		<polyline fill="none" stroke="#FFA400" stroke-width="5.202" stroke-linecap="round" stroke-linejoin="round" stroke-miterlimit="10" points="
		59.977,61.996 67.758,71.654 94.898,44.906 	"/>
</g>
</svg>
