<?xml version="1.0" encoding="utf-8"?>
<!-- Generator: Adobe Illustrator 16.0.0, SVG Export Plug-In . SVG Version: 6.00 Build 0)  -->
<!DOCTYPE svg PUBLIC "-//W3C//DTD SVG 1.1//EN" "http://www.w3.org/Graphics/SVG/1.1/DTD/svg11.dtd">
<svg version="1.1" id="Capa_1" xmlns="http://www.w3.org/2000/svg" xmlns:xlink="http://www.w3.org/1999/xlink" x="0px" y="0px"
	 width="290px" height="70px" viewBox="0 0 290 70" enable-background="new 0 0 290 70" xml:space="preserve">
<g>
	<path fill="#F6921E" d="M227.491,36.939l14.094,24.416c0.228,0.395,0.648,0.639,1.104,0.639l28.193,0.004
		c0.455,0,0.875-0.244,1.103-0.639l14.101-24.414c0.227-0.395,0.227-0.881,0-1.274L271.99,11.255
		c-0.228-0.396-0.647-0.637-1.103-0.637l-28.193-0.004c-0.455,0-0.876,0.243-1.104,0.637l-14.1,24.415
		C227.263,36.059,227.263,36.545,227.491,36.939"/>
	<path fill="#003056" d="M276.608,34.216l-17.42-30.18c-0.283-0.487-0.801-0.788-1.364-0.788h-6.527V3.244H106.455h-4.166h-0.001
		H3.745v63.352h98.398c-0.076,0.1-0.095,0.156,0.146,0.156l155.526,0.004c0.563,0,1.084-0.299,1.365-0.787l17.428-30.178
		C276.89,35.303,276.89,34.703,276.608,34.216"/>
	<polygon fill="#FFFFFF" points="105.524,34.042 92.96,34.042 92.96,30.149 100.202,30.149 100.202,27.466 92.96,27.466 
		92.96,23.973 105.371,23.973 105.371,21.292 89.31,21.292 89.31,36.992 105.524,36.992 	"/>
	<polygon fill="#FFFFFF" points="117.812,36.992 126.459,21.291 122.81,21.291 116.751,32.645 110.392,21.291 106.228,21.291 
		115.294,36.992 	"/>
	<polygon fill="#FFFFFF" points="144.646,34.042 132.088,34.042 132.088,30.149 139.325,30.149 139.325,27.466 132.088,27.466 
		132.088,23.973 144.5,23.973 144.5,21.292 128.438,21.292 128.438,36.992 144.646,36.992 	"/>
	<path fill="#FFFFFF" d="M152.712,31.063h3.471l6.333,5.93h5.224l-7.236-5.93h2.067c2.349,0,3.525-1.014,3.525-3.039v-3.686
		c0-2.027-1.177-3.046-3.525-3.046h-13.444v15.701h3.586V31.063z M152.712,23.972h8.219c0.564,0,0.957,0.062,1.181,0.183
		c0.312,0.185,0.459,0.541,0.459,1.072v1.902c0,0.529-0.147,0.887-0.459,1.072c-0.224,0.123-0.616,0.183-1.181,0.183h-8.219V23.972z
		"/>
	<polygon fill="#FFFFFF" points="187.46,34.042 174.893,34.042 174.893,30.149 182.132,30.149 182.132,27.466 174.893,27.466 
		174.893,23.973 187.307,23.973 187.307,21.292 171.245,21.292 171.245,36.992 187.46,36.992 	"/>
	<polygon fill="#FFFFFF" points="189.528,36.992 193.846,36.992 199.136,30.909 204.887,36.992 209.847,36.992 201.394,28.505 
		208.235,21.291 204.038,21.291 199.267,26.619 194.243,21.291 189.405,21.291 196.979,28.93 	"/>
	<path fill="#FFFFFF" d="M57.317,35.306l1.407,0.527c1.008,0.344,1.084,0.366,3.167,0.797c0.543,0.107,1.283,0.166,1.834,0.234
		c5.364,0.389,13.688-3.682,16.465-5.88c-0.166,0.022-0.339,0.082-1.686,0.597C67.311,35.867,61.771,36.846,57.317,35.306"/>
	<path fill="#FFFFFF" d="M71.816,29.142c-11.515,2.347-19.987,3.587-24.106-1.883l0.154,0.241c0.807,1.195,0.897,1.293,2.402,2.979
		c0.601,0.63,1.493,1.39,2.159,1.952c4.746,3.372,12.466,1.652,22.072-0.945c5.355-1.449,5.52-1.301,5.941-0.952
		c-0.043,0.147-0.156,0.325-0.247,0.452C84.328,26.588,77.683,27.942,71.816,29.142"/>
	<path fill="#FFFFFF" d="M45.101,21.479l0.205,0.69c1.392,4.212,5.654,5.114,9.639,5.438c8.085,0.671,15.717-2.628,23.726-2.678
		c2.202-0.014,6.773,0.546,1.519,6.056c1.426-1.375,13.27-13.327-10.387-9.788c-16.623,2.479-25.123,2.306-25.486-5.525
		c0.013,0.779,0.087,1.823,0.147,2.604C44.599,19.392,44.599,19.392,45.101,21.479"/>
	<path fill="#FFFFFF" d="M49.935,47.904h-5.79v6.424h1.553v-2.506h4.237c0.997,0,1.497-0.414,1.497-1.246v-1.42
		c0-0.451-0.118-0.773-0.351-0.959C50.841,48.006,50.456,47.904,49.935,47.904 M49.978,50.197c0,0.344-0.241,0.516-0.717,0.516
		h-3.563v-1.699h3.563c0.476,0,0.717,0.174,0.717,0.516V50.197z"/>
	<polygon fill="#FFFFFF" points="61.963,50.348 57.066,50.348 57.066,47.904 55.49,47.904 55.49,54.326 57.066,54.326 
		57.066,51.625 61.963,51.625 61.963,54.326 63.526,54.326 63.526,47.904 61.963,47.904 	"/>
	<path fill="#FFFFFF" d="M71.044,47.904l-3.816,6.424h1.566l0.805-1.412h4.251l0.808,1.412h1.758l-3.872-6.424H71.044z
		 M70.27,51.744l1.44-2.672l1.503,2.672H70.27z"/>
	<path fill="#FFFFFF" d="M85.604,51.898c1.003,0,1.506-0.408,1.506-1.23v-1.512c0-0.838-0.503-1.252-1.506-1.252H79.82v6.424h1.551
		v-2.43h1.471l2.686,2.43h2.253l-3.058-2.43H85.604z M81.371,50.791v-1.777h3.563c0.479,0,0.713,0.174,0.713,0.514v0.746
		c0,0.35-0.234,0.518-0.713,0.518H81.371z"/>
	<polygon fill="#FFFFFF" points="95.9,51.713 92.757,47.904 91.499,47.904 91.499,54.328 92.757,54.328 92.757,50.014 
		95.659,53.551 95.96,53.551 98.837,49.91 98.837,54.328 100.294,54.328 100.294,47.904 99.036,47.904 	"/>
	<path fill="#FFFFFF" d="M107.789,47.904l-3.808,6.424h1.56l0.806-1.412h4.256l0.807,1.412h1.762l-3.875-6.424H107.789z
		 M107.019,51.744l1.441-2.672l1.506,2.672H107.019z"/>
	<path fill="#FFFFFF" d="M122.096,47.904h-3.998c-0.657,0-1.095,0.107-1.327,0.313c-0.236,0.211-0.352,0.609-0.352,1.207v3.387
		c0,0.586,0.115,0.986,0.352,1.197c0.232,0.213,0.67,0.32,1.327,0.32h3.998c0.654,0,1.091-0.102,1.332-0.309
		c0.24-0.215,0.358-0.611,0.358-1.209v-0.758l-1.586-0.32v1.369h-4.199v-4.01h4.199v1.182l1.586-0.23v-0.619
		c0-0.598-0.118-0.996-0.358-1.207C123.187,48.012,122.75,47.904,122.096,47.904"/>
	<polygon fill="#FFFFFF" points="129.737,51.553 132.836,51.553 132.836,50.439 129.737,50.439 129.737,49.047 135.053,49.047 
		135.053,47.906 128.159,47.906 128.159,54.328 135.13,54.328 135.13,53.131 129.737,53.131 	"/>
	<path fill="#FFFFFF" d="M145.228,53.131h-4.453v-5.227H139.2v4.906c0,0.598,0.117,0.994,0.352,1.209
		c0.229,0.207,0.674,0.309,1.322,0.309h4.246c0.65,0,1.094-0.102,1.332-0.309c0.236-0.215,0.352-0.611,0.352-1.209v-4.906h-1.576
		V53.131z"/>
	<polygon fill="#FFFFFF" points="150.636,49.059 153.732,49.059 153.732,54.328 155.296,54.328 155.296,49.059 158.408,49.059 
		158.408,47.906 150.636,47.906 	"/>
	<rect x="162.237" y="47.904" fill="#FFFFFF" width="1.566" height="6.422"/>
	<path fill="#FFFFFF" d="M173.993,47.904h-4.008c-0.646,0-1.094,0.107-1.322,0.313c-0.233,0.211-0.352,0.609-0.352,1.207v3.387
		c0,0.586,0.118,0.986,0.352,1.197c0.229,0.213,0.676,0.32,1.322,0.32h4.008c0.649,0,1.092-0.102,1.328-0.309
		c0.234-0.215,0.355-0.611,0.355-1.209v-0.758l-1.578-0.32v1.369h-4.205v-4.01h4.205v1.182l1.578-0.23v-0.619
		c0-0.598-0.121-0.996-0.355-1.207C175.085,48.012,174.643,47.904,173.993,47.904"/>
	<path fill="#FFFFFF" d="M182.892,47.904l-3.811,6.424h1.563l0.806-1.412h4.246l0.813,1.412h1.76l-3.871-6.424H182.892z
		 M182.12,51.744l1.443-2.672l1.502,2.672H182.12z"/>
	<polygon fill="#FFFFFF" points="193.25,47.904 191.673,47.904 191.673,54.328 198.292,54.328 198.292,53.131 193.25,53.131 	"/>
	<path fill="#FFFFFF" d="M207.556,50.41h-4.18v-1.352h4.425v0.684l1.354-0.289v-0.15c0-0.543-0.136-0.92-0.383-1.105
		c-0.258-0.191-0.689-0.291-1.311-0.291h-3.807c-0.642,0-1.078,0.105-1.319,0.311c-0.25,0.211-0.367,0.609-0.367,1.205v0.717
		c0,0.594,0.117,0.996,0.367,1.207c0.241,0.209,0.678,0.311,1.319,0.311h4.162v1.475h-4.727v-0.758l-1.398,0.254v0.184
		c0,0.598,0.119,0.994,0.355,1.209c0.24,0.207,0.686,0.309,1.328,0.309h4.18c0.652,0,1.089-0.102,1.32-0.309
		c0.228-0.215,0.347-0.611,0.347-1.209v-0.883c0-0.592-0.119-0.996-0.347-1.209C208.645,50.518,208.208,50.41,207.556,50.41"/>
	<rect x="43.183" y="42.84" fill="#FFFFFF" width="166.689" height="0.734"/>
</g>
</svg>
